<?xml version="1.0" encoding="utf-8"?>
<!-- Generator: Adobe Illustrator 18.1.0, SVG Export Plug-In . SVG Version: 6.00 Build 0)  -->
<svg version="1.1" xmlns="http://www.w3.org/2000/svg" xmlns:xlink="http://www.w3.org/1999/xlink" x="0px" y="0px"
	 viewBox="0 0 68 23" style="enable-background:new 0 0 68 23;" xml:space="preserve">
<style type="text/css">
	.st0{fill:#FFFFFF;}
</style>
<g id="name">
	<g>
		<path class="st0" d="M7.3,22.1c-0.1,0-0.2-0.1-0.2-0.2v-7.9c0-0.1,0-0.1-0.1-0.1H6.3c-0.1,0-0.2-0.1-0.2-0.2v-1.8
			c0-0.1,0.1-0.2,0.2-0.2h0.7c0.1,0,0.1,0,0.1-0.1v-0.5c0-2.6,1.2-3.6,3.7-3.6h1.2c0.1,0,0.2,0.1,0.2,0.2v2c0,0.1-0.1,0.2-0.2,0.2
			h-0.7c-1,0-1.2,0.2-1.2,1.1v0.5c0,0.1,0,0.1,0.1,0.1h1.7c0.1,0,0.2,0.1,0.2,0.2v1.8c0,0.1-0.1,0.2-0.2,0.2h-1.7
			c-0.1,0-0.1,0-0.1,0.1v7.9c0,0.1-0.1,0.2-0.2,0.2H7.3z"/>
		<path class="st0" d="M15.2,9.9c-0.1,0-0.2-0.1-0.2-0.2V7.5c0-0.1,0.1-0.2,0.2-0.2h2.6c0.1,0,0.2,0.1,0.2,0.2v2.1
			c0,0.1-0.1,0.2-0.2,0.2H15.2z M15.2,22.1c-0.1,0-0.2-0.1-0.2-0.2V11.8c0-0.1,0.1-0.2,0.2-0.2h2.6c0.1,0,0.2,0.1,0.2,0.2v10.1
			c0,0.1-0.1,0.2-0.2,0.2H15.2z"/>
		<path class="st0" d="M24.4,22.2c-2.3,0-3.3-1-3.3-3.3V7.5c0-0.1,0.1-0.2,0.2-0.2h2.6c0.1,0,0.2,0.1,0.2,0.2v11.1
			c0,0.7,0.3,1,0.9,1h0.5c0.1,0,0.2,0.1,0.2,0.2V22c0,0.1-0.1,0.2-0.2,0.2H24.4z"/>
		<path class="st0" d="M30.6,22.2c-2.3,0-3.3-1-3.3-3.3V7.5c0-0.1,0.1-0.2,0.2-0.2h2.6c0.1,0,0.2,0.1,0.2,0.2v11.1
			c0,0.7,0.3,1,0.9,1h0.5c0.1,0,0.2,0.1,0.2,0.2V22c0,0.1-0.1,0.2-0.2,0.2H30.6z"/>
		<path class="st0" d="M37.5,22.2c-2.4,0-3.3-1.1-3.3-3.5v-4.8c0-0.1,0-0.1-0.1-0.1h-0.7c-0.1,0-0.2-0.1-0.2-0.2v-1.8
			c0-0.1,0.1-0.2,0.2-0.2H34c0.1,0,0.1,0,0.1-0.1V8.6c0-0.1,0.1-0.2,0.2-0.2h2.6c0.1,0,0.2,0.1,0.2,0.2v2.8c0,0.1,0,0.1,0.1,0.1h1.3
			c0.1,0,0.2,0.1,0.2,0.2v1.8c0,0.1-0.1,0.2-0.2,0.2h-1.3c-0.1,0-0.1,0-0.1,0.1v4.6c0,0.8,0.3,1,1,1h0.5c0.1,0,0.2,0.1,0.2,0.2V22
			c0,0.1-0.1,0.2-0.2,0.2H37.5z"/>
		<path class="st0" d="M41.3,19.3c-0.2-0.7-0.4-1.4-0.4-2.5c0-1.1,0.1-1.9,0.3-2.5c0.6-1.9,2.3-3,4.5-3c2.3,0,3.9,1.1,4.5,3
			c0.2,0.7,0.3,1.5,0.3,3.2c0,0.1-0.1,0.2-0.2,0.2h-6.4c-0.1,0-0.1,0-0.1,0.1c0,0.2,0.1,0.4,0.1,0.6c0.3,0.9,1.1,1.4,2.2,1.4
			c1,0,1.8-0.4,2.4-0.9c0.1-0.1,0.2-0.1,0.3,0l1.4,1.3c0.1,0.1,0.1,0.2,0,0.3c-1,1.1-2.5,1.8-4.5,1.8C43.6,22.3,41.9,21.2,41.3,19.3
			z M47.6,15.7c0.1,0,0.1,0,0.1-0.1c0-0.3,0-0.6-0.1-0.8c-0.2-0.7-0.9-1.1-1.8-1.1c-0.9,0-1.5,0.4-1.8,1.1C44,15,44,15.3,44,15.6
			c0,0.1,0,0.1,0.1,0.1H47.6z"/>
		<path class="st0" d="M53.6,22.1c-0.1,0-0.2-0.1-0.2-0.2V11.8c0-0.1,0.1-0.2,0.2-0.2h2.6c0.1,0,0.2,0.1,0.2,0.2v0.9h0
			c0.5-0.8,1.5-1.3,2.7-1.3c0.7,0,1.4,0.2,1.8,0.6c0.1,0.1,0.1,0.2,0.1,0.3l-1.2,2.2c-0.1,0.1-0.2,0.1-0.3,0c-0.5-0.3-1-0.5-1.5-0.5
			c-1.1,0-1.6,0.9-1.6,2.3v5.5c0,0.1-0.1,0.2-0.2,0.2H53.6z"/>
	</g>
</g>
<g id="icon">
	<g>
	</g>
	<g>
	</g>
	<g>
	</g>
	<g>
	</g>
	<g>
	</g>
	<g>
	</g>
</g>
</svg>
