<?xml version="1.0" encoding="utf-8"?>
<!-- Generator: Adobe Illustrator 18.1.0, SVG Export Plug-In . SVG Version: 6.00 Build 0)  -->
<svg version="1.1" xmlns="http://www.w3.org/2000/svg" xmlns:xlink="http://www.w3.org/1999/xlink" x="0px" y="0px"
	 viewBox="0 0 68 64" style="enable-background:new 0 0 68 64;" xml:space="preserve">
<style type="text/css">
	.st0{fill:#FFFFFF;}
	.st1{fill:#FA6464;}
</style>
<g id="name">
</g>
<g id="icon">
	<g>
		<path class="st0" d="M29.8,64H6.2C6.1,64,6,63.9,6,63.8V9.2C6,9.1,6.1,9,6.2,9h6.6C12.9,9,13,9.1,13,9.2v47.6
			c0,0.1,0.1,0.2,0.2,0.2h16.6c0.1,0,0.2,0.1,0.2,0.2v6.6C30,63.9,29.9,64,29.8,64z"/>
	</g>
	<g>
		<path class="st0" d="M60.8,64H37.2c-0.1,0-0.2-0.1-0.2-0.2v-6.6c0-0.1,0.1-0.2,0.2-0.2h16.6c0.1,0,0.2-0.1,0.2-0.2V9.2
			C54,9.1,54.1,9,54.2,9h6.6C60.9,9,61,9.1,61,9.2v54.6C61,63.9,60.9,64,60.8,64z"/>
	</g>
	<g>
		<path class="st1" d="M46.8,42h-6.6c-0.1,0-0.2-0.1-0.2-0.2V16.2c0-0.1,0.1-0.2,0.2-0.2h6.6c0.1,0,0.2,0.1,0.2,0.2v25.6
			C47,41.9,46.9,42,46.8,42z"/>
	</g>
	<g>
		<path class="st1" d="M36.8,49h-6.6c-0.1,0-0.2-0.1-0.2-0.2V23.2c0-0.1,0.1-0.2,0.2-0.2h6.6c0.1,0,0.2,0.1,0.2,0.2v25.6
			C37,48.9,36.9,49,36.8,49z"/>
	</g>
	<g>
		<path class="st1" d="M26.8,35h-6.6c-0.1,0-0.2-0.1-0.2-0.2V9.2C20,9.1,20.1,9,20.2,9h6.6C26.9,9,27,9.1,27,9.2v25.6
			C27,34.9,26.9,35,26.8,35z"/>
	</g>
	<g>
	</g>
	<g>
	</g>
	<g>
	</g>
	<g>
	</g>
	<g>
	</g>
	<g>
	</g>
</g>
</svg>
